<?xml version="1.0" encoding="UTF-8"?>
<svg width="128px" height="128px" version="1.1" viewBox="0 0 1229 1229" xmlns="http://www.w3.org/2000/svg">
 <path id="Auswahl" d="m603.87 69.4c21.83-3.42 42.9 2.78 63.77 8.27l88.76 23.75 140.03 37.51 137.53 36.83 72.52 19.43c18.94 4.98 34.65 7.79 51.26 19.05 6.27 4.25 9.72 8.03 15 13.31 18.5 18.5 28.87 34.92 31.47 61.26 0.34 3.51 0.91 5 0.64 8.75-3.51 46.76-45.09 91.19-93.37 91.27h-836.42-152.54c-44.49-0.08-95.76-43.55-94.09-90.02l0.73-15c4.63-28.33 24.19-59.64 49.61-73.54 9.52-5.2 20.89-7.88 31.25-10.75l55.01-14.84 82.52-22 155.03-41.59s102.52-27.51 102.52-27.51l70.02-18.88 17.5-2.55 11.25-2.75zm-485.1 346.21c51.74-6.31 102.45 40.31 102.53 91.99v378.83c-0.08 47.2-47.31 95.23-95.02 93.72-35.05-1.11-67.49-25.54-82.82-56.21-6.25-12.49-9.68-23.47-9.7-37.51v-377.58c0.06-36.48 26.05-71.49 58.76-86.39 8.26-3.76 17.35-5.5 26.25-6.85zm326.32 3.75c52.14-6.36 102.45 43.27 102.52 94.49v371.33c-0.07 47.82-45.48 94.92-93.77 94.92-33.97 0-67.36-24.51-82.88-53.66-7.04-13.22-10.86-24.97-10.89-40.01v-372.58c0.03-17.46 7.49-39.9 18.17-53.76l13.3-14.1c3.45-3.36 7.14-7.13 11.04-9.91 11.58-8.29 28.5-14.58 42.51-16.72zm331.32 0c15.66-1.91 29.6 1.28 43.76 7.95 35.47 16.76 58.7 50.82 58.76 90.3v362.57c-0.03 14.81-2.76 29.07-9.15 42.51-13.69 28.8-43.95 52.62-75.87 56.45-4.34 0.52-6.67 1.21-11.25 0.95-41.41-2.35-78.65-35.29-89.27-74.91-1.67-6.28-3.24-20.85-3.25-27.5v-355.07c0.03-19.8 6.71-45.08 18.29-61.27 2.46-3.42 7.05-7.9 10.12-11.04l14.1-13.3c11.26-8.68 29.76-15.51 43.76-17.64zm326.31 0c40.02-4.88 81.16 25.96 95.71 61.99 4.71 11.66 6.79 24.97 6.82 37.51v360.07c-0.03 16.04-3.17 31.89-10.47 46.26-13.96 27.47-43.72 50.26-74.55 53.95-4.34 0.52-6.68 1.21-11.25 0.95-41.41-2.35-78.66-35.29-89.27-74.91-1.68-6.28-3.24-20.85-3.25-27.5v-355.07c0.02-19.8 6.71-45.08 18.29-61.27 2.46-3.42 7.05-7.9 10.11-11.04 3.39-3.48 11.8-11.87 15.36-14.42 10.75-7.69 29.4-14.52 42.5-16.52zm-975.19 575.93h33.75 60.02 183.78 561.37 103.77c27.27-0.09 51.06-1.79 77.51 7.1 7.98 2.68 18.49 9.85 25.01 15.22 18.61 15.35 35.96 41.43 36.26 66.36v10c-0.52 43.96-47.55 88.71-91.27 88.77h-835.17-157.53c-47.39-0.07-91.8-48.13-91.27-95.02 0.4-34.79 27.88-69.81 58.76-83.89 11.1-5.06 23.12-6.3 35.01-8.54z" fill="#729fcf" stroke="#000" style="mix-blend-mode:normal"/>
</svg>
